<?xml version="1.0" encoding="utf-8" ?>
<svg baseProfile="full" height="8584" style="font-size:32" version="1.1" width="2000" xmlns="http://www.w3.org/2000/svg" xmlns:ev="http://www.w3.org/2001/xml-events" xmlns:xlink="http://www.w3.org/1999/xlink"><defs /><rect fill="rgb(128,0,0)" height="176" stroke="black" stroke-width="5" width="1600" x="200" y="200" /><rect fill="rgb(128,0,0)" height="152" stroke="black" stroke-width="5" width="776.0" x="212.0" y="212" /><text x="236.0" y="288.0">['gentlem']</text><rect fill="rgb(128,0,0)" height="152" stroke="black" stroke-width="5" width="776.0" x="1012.0" y="212" /><text x="1036.0" y="288.0">['en']</text><rect fill="rgb(128,0,0)" height="176" stroke="black" stroke-width="5" width="1600" x="200" y="400" /><rect fill="rgb(128,0,0)" height="152" stroke="black" stroke-width="5" width="776.0" x="212.0" y="412" /><text x="236.0" y="488.0">['not', 'clos', 'not', 'hav', 'trifl']</text><rect fill="rgb(128,0,0)" height="152" stroke="black" stroke-width="5" width="776.0" x="1012.0" y="412" /><text x="1036.0" y="488.0">['e']</text><rect fill="rgb(128,0,0)" height="176" stroke="black" stroke-width="5" width="1600" x="200" y="600" /><rect fill="rgb(128,0,0)" height="152" stroke="black" stroke-width="5" width="776.0" x="212.0" y="612" /><text x="236.0" y="688.0">['some']</text><rect fill="rgb(128,0,0)" height="152" stroke="black" stroke-width="5" width="776.0" x="1012.0" y="612" /><text x="1036.0" y="688.0">['', 'one']</text><rect fill="rgb(128,0,0)" height="176" stroke="black" stroke-width="5" width="1600" x="200" y="800" /><rect fill="rgb(128,0,0)" height="152" stroke="black" stroke-width="5" width="776.0" x="212.0" y="812" /><text x="236.0" y="888.0">['problem', 'emotion', 'mean', 'length', 'find']</text><rect fill="rgb(128,0,0)" height="152" stroke="black" stroke-width="5" width="776.0" x="1012.0" y="812" /><text x="1036.0" y="888.0">['']</text><rect fill="rgb(128,0,0)" height="176" stroke="black" stroke-width="5" width="1600" x="200" y="1000" /><rect fill="rgb(128,0,0)" height="152" stroke="black" stroke-width="5" width="776.0" x="212.0" y="1012" /><text x="236.0" y="1088.0">['save', 'observe', 'resolve', 'glance', 'refuse']</text><rect fill="rgb(128,0,0)" height="152" stroke="black" stroke-width="5" width="776.0" x="1012.0" y="1012" /><text x="1036.0" y="1088.0">['']</text><rect fill="rgb(128,0,0)" height="176" stroke="black" stroke-width="5" width="1600" x="200" y="1200" /><rect fill="rgb(128,0,0)" height="152" stroke="black" stroke-width="5" width="776.0" x="212.0" y="1212" /><text x="236.0" y="1288.0">['like', 'deep', 'former', 'like', 'kind']</text><rect fill="rgb(128,0,0)" height="152" stroke="black" stroke-width="5" width="776.0" x="1012.0" y="1212" /><text x="1036.0" y="1288.0">['ly']</text><rect fill="rgb(128,0,0)" height="176" stroke="black" stroke-width="5" width="1600" x="200" y="1400" /><rect fill="rgb(128,0,0)" height="152" stroke="black" stroke-width="5" width="776.0" x="212.0" y="1412" /><text x="236.0" y="1488.0">['probabl', 'eas', 'eas']</text><rect fill="rgb(128,0,0)" height="152" stroke="black" stroke-width="5" width="776.0" x="1012.0" y="1412" /><text x="1036.0" y="1488.0">['y']</text><rect fill="rgb(128,0,0)" height="176" stroke="black" stroke-width="5" width="1600" x="200" y="1600" /><rect fill="rgb(128,0,0)" height="152" stroke="black" stroke-width="5" width="776.0" x="212.0" y="1612" /><text x="236.0" y="1688.0">['wav', 'extend', 'liv', 'liv', 'dash']</text><rect fill="rgb(128,0,0)" height="152" stroke="black" stroke-width="5" width="776.0" x="1012.0" y="1612" /><text x="1036.0" y="1688.0">['ed']</text><rect fill="rgb(128,0,0)" height="176" stroke="black" stroke-width="5" width="1600" x="200" y="1800" /><rect fill="rgb(128,0,0)" height="152" stroke="black" stroke-width="5" width="776.0" x="212.0" y="1812" /><text x="236.0" y="1888.0">['end', 'pull', 'dress', 'explain', 'guess']</text><rect fill="rgb(128,0,0)" height="152" stroke="black" stroke-width="5" width="776.0" x="1012.0" y="1812" /><text x="1036.0" y="1888.0">['']</text><rect fill="rgb(128,0,0)" height="176" stroke="black" stroke-width="5" width="1600" x="200" y="2000" /><rect fill="rgb(128,0,0)" height="152" stroke="black" stroke-width="5" width="776.0" x="212.0" y="2012" /><text x="236.0" y="2088.0">['see', 'spoke', 'bohemia', 'broke', 'rise']</text><rect fill="rgb(128,0,0)" height="152" stroke="black" stroke-width="5" width="776.0" x="1012.0" y="2012" /><text x="1036.0" y="2088.0">['']</text><rect fill="rgb(128,0,0)" height="176" stroke="black" stroke-width="5" width="1600" x="200" y="2200" /><rect fill="rgb(128,0,0)" height="152" stroke="black" stroke-width="5" width="776.0" x="212.0" y="2212" /><text x="236.0" y="2288.0">['factor']</text><rect fill="rgb(128,0,0)" height="152" stroke="black" stroke-width="5" width="776.0" x="1012.0" y="2212" /><text x="1036.0" y="2288.0">['']</text><rect fill="rgb(128,0,0)" height="176" stroke="black" stroke-width="5" width="1600" x="200" y="2400" /><rect fill="rgb(128,0,0)" height="152" stroke="black" stroke-width="5" width="776.0" x="212.0" y="2412" /><text x="236.0" y="2488.0">['fin', 'fin']</text><rect fill="rgb(128,0,0)" height="152" stroke="black" stroke-width="5" width="776.0" x="1012.0" y="2412" /><text x="1036.0" y="2488.0">['e']</text><rect fill="rgb(128,0,0)" height="176" stroke="black" stroke-width="5" width="1600" x="200" y="2600" /><rect fill="rgb(128,0,0)" height="152" stroke="black" stroke-width="5" width="776.0" x="212.0" y="2612" /><text x="236.0" y="2688.0">['interest', 'return', 'interest']</text><rect fill="rgb(128,0,0)" height="152" stroke="black" stroke-width="5" width="776.0" x="1012.0" y="2612" /><text x="1036.0" y="2688.0">['ing', '', 'ing']</text><rect fill="rgb(128,0,0)" height="176" stroke="black" stroke-width="5" width="1600" x="200" y="2800" /><rect fill="rgb(128,0,0)" height="152" stroke="black" stroke-width="5" width="776.0" x="212.0" y="2812" /><text x="236.0" y="2888.0">['call', 'remain', 'call']</text><rect fill="rgb(128,0,0)" height="152" stroke="black" stroke-width="5" width="776.0" x="1012.0" y="2812" /><text x="1036.0" y="2888.0">['ed', 's']</text><rect fill="rgb(128,0,0)" height="176" stroke="black" stroke-width="5" width="1600" x="200" y="3000" /><rect fill="rgb(128,0,0)" height="152" stroke="black" stroke-width="5" width="776.0" x="212.0" y="3012" /><text x="236.0" y="3088.0">['sympath']</text><rect fill="rgb(128,0,0)" height="152" stroke="black" stroke-width="5" width="776.0" x="1012.0" y="3012" /><text x="1036.0" y="3088.0">['y']</text><rect fill="rgb(128,0,0)" height="176" stroke="black" stroke-width="5" width="1600" x="200" y="3200" /><rect fill="rgb(128,0,0)" height="152" stroke="black" stroke-width="5" width="776.0" x="212.0" y="3212" /><text x="236.0" y="3288.0">['pass', 'follow', 'fail', 'secret', 'rush']</text><rect fill="rgb(128,0,0)" height="152" stroke="black" stroke-width="5" width="776.0" x="1012.0" y="3212" /><text x="1036.0" y="3288.0">['', 'ed']</text><rect fill="rgb(128,0,0)" height="176" stroke="black" stroke-width="5" width="1600" x="200" y="3400" /><rect fill="rgb(128,0,0)" height="152" stroke="black" stroke-width="5" width="776.0" x="212.0" y="3412" /><text x="236.0" y="3488.0">['wear', 'play', 'consult', 'thank', 'thank']</text><rect fill="rgb(128,0,0)" height="152" stroke="black" stroke-width="5" width="776.0" x="1012.0" y="3412" /><text x="1036.0" y="3488.0">['']</text><rect fill="rgb(128,0,0)" height="176" stroke="black" stroke-width="5" width="1600" x="200" y="3600" /><rect fill="rgb(128,0,0)" height="152" stroke="black" stroke-width="5" width="776.0" x="212.0" y="3612" /><text x="236.0" y="3688.0">['carr', 'biograph', 'famil', 'myster', 'myster']</text><rect fill="rgb(128,0,0)" height="152" stroke="black" stroke-width="5" width="776.0" x="1012.0" y="3612" /><text x="1036.0" y="3688.0">['ies']</text><rect fill="rgb(128,0,0)" height="176" stroke="black" stroke-width="5" width="1600" x="200" y="3800" /><rect fill="rgb(128,0,0)" height="152" stroke="black" stroke-width="5" width="776.0" x="212.0" y="3812" /><text x="236.0" y="3888.0">['how']</text><rect fill="rgb(128,0,0)" height="152" stroke="black" stroke-width="5" width="776.0" x="1012.0" y="3812" /><text x="1036.0" y="3888.0">['ever']</text><rect fill="rgb(128,0,0)" height="176" stroke="black" stroke-width="5" width="1600" x="200" y="4000" /><rect fill="rgb(128,0,0)" height="152" stroke="black" stroke-width="5" width="776.0" x="212.0" y="4012" /><text x="236.0" y="4088.0">['drive', 'give']</text><rect fill="rgb(128,0,0)" height="152" stroke="black" stroke-width="5" width="776.0" x="1012.0" y="4012" /><text x="1036.0" y="4088.0">['s', '']</text><rect fill="rgb(128,0,0)" height="176" stroke="black" stroke-width="5" width="1600" x="200" y="4200" /><rect fill="rgb(128,0,0)" height="152" stroke="black" stroke-width="5" width="776.0" x="212.0" y="4212" /><text x="236.0" y="4288.0">['depart']</text><rect fill="rgb(128,0,0)" height="152" stroke="black" stroke-width="5" width="776.0" x="1012.0" y="4212" /><text x="1036.0" y="4288.0">['ure']</text><rect fill="rgb(128,0,0)" height="176" stroke="black" stroke-width="5" width="1600" x="200" y="4400" /><rect fill="rgb(128,0,0)" height="152" stroke="black" stroke-width="5" width="776.0" x="212.0" y="4412" /><text x="236.0" y="4488.0">['los', 'los']</text><rect fill="rgb(128,0,0)" height="152" stroke="black" stroke-width="5" width="776.0" x="1012.0" y="4412" /><text x="1036.0" y="4488.0">['t']</text><rect fill="rgb(128,0,0)" height="176" stroke="black" stroke-width="5" width="1600" x="200" y="4600" /><rect fill="rgb(128,0,0)" height="152" stroke="black" stroke-width="5" width="776.0" x="212.0" y="4612" /><text x="236.0" y="4688.0">['sit', 'sit']</text><rect fill="rgb(128,0,0)" height="152" stroke="black" stroke-width="5" width="776.0" x="1012.0" y="4612" /><text x="1036.0" y="4688.0">['ting']</text><rect fill="rgb(128,0,0)" height="176" stroke="black" stroke-width="5" width="1600" x="200" y="4800" /><rect fill="rgb(128,0,0)" height="152" stroke="black" stroke-width="5" width="776.0" x="212.0" y="4812" /><text x="236.0" y="4888.0">['yours']</text><rect fill="rgb(128,0,0)" height="152" stroke="black" stroke-width="5" width="776.0" x="1012.0" y="4812" /><text x="1036.0" y="4888.0">['']</text><rect fill="rgb(128,0,0)" height="176" stroke="black" stroke-width="5" width="1600" x="200" y="5000" /><rect fill="rgb(128,0,0)" height="152" stroke="black" stroke-width="5" width="776.0" x="212.0" y="5012" /><text x="236.0" y="5088.0">['carrie', 'carrie', 'live', 'reache']</text><rect fill="rgb(128,0,0)" height="152" stroke="black" stroke-width="5" width="776.0" x="1012.0" y="5012" /><text x="1036.0" y="5088.0">['d']</text><rect fill="rgb(128,0,0)" height="176" stroke="black" stroke-width="5" width="1600" x="200" y="5200" /><rect fill="rgb(128,0,0)" height="152" stroke="black" stroke-width="5" width="776.0" x="212.0" y="5212" /><text x="236.0" y="5288.0">['importan']</text><rect fill="rgb(128,0,0)" height="152" stroke="black" stroke-width="5" width="776.0" x="1012.0" y="5212" /><text x="1036.0" y="5288.0">['t']</text><rect fill="rgb(128,0,0)" height="176" stroke="black" stroke-width="5" width="1600" x="200" y="5400" /><rect fill="rgb(128,0,0)" height="152" stroke="black" stroke-width="5" width="776.0" x="212.0" y="5412" /><text x="236.0" y="5488.0">['stand']</text><rect fill="rgb(128,0,0)" height="152" stroke="black" stroke-width="5" width="776.0" x="1012.0" y="5412" /><text x="1036.0" y="5488.0">['ing']</text><rect fill="rgb(128,0,0)" height="176" stroke="black" stroke-width="5" width="1600" x="200" y="5600" /><rect fill="rgb(128,0,0)" height="152" stroke="black" stroke-width="5" width="776.0" x="212.0" y="5612" /><text x="236.0" y="5688.0">['compromis', 'observ']</text><rect fill="rgb(128,0,0)" height="152" stroke="black" stroke-width="5" width="776.0" x="1012.0" y="5612" /><text x="1036.0" y="5688.0">['e', 'e']</text><rect fill="rgb(128,0,0)" height="176" stroke="black" stroke-width="5" width="1600" x="200" y="5800" /><rect fill="rgb(128,0,0)" height="152" stroke="black" stroke-width="5" width="776.0" x="212.0" y="5812" /><text x="236.0" y="5888.0">['far', 'mad', 'mad', 'mad']</text><rect fill="rgb(128,0,0)" height="152" stroke="black" stroke-width="5" width="776.0" x="1012.0" y="5812" /><text x="1036.0" y="5888.0">['e']</text><rect fill="rgb(128,0,0)" height="176" stroke="black" stroke-width="5" width="1600" x="200" y="6000" /><rect fill="rgb(128,0,0)" height="152" stroke="black" stroke-width="5" width="776.0" x="212.0" y="6012" /><text x="236.0" y="6088.0">['resolut']</text><rect fill="rgb(128,0,0)" height="152" stroke="black" stroke-width="5" width="776.0" x="1012.0" y="6012" /><text x="1036.0" y="6088.0">['e']</text><rect fill="rgb(128,0,0)" height="176" stroke="black" stroke-width="5" width="1600" x="200" y="6200" /><rect fill="rgb(128,0,0)" height="152" stroke="black" stroke-width="5" width="776.0" x="212.0" y="6212" /><text x="236.0" y="6288.0">['reach']</text><rect fill="rgb(128,0,0)" height="152" stroke="black" stroke-width="5" width="776.0" x="1012.0" y="6212" /><text x="1036.0" y="6288.0">['', '']</text><rect fill="rgb(128,0,0)" height="176" stroke="black" stroke-width="5" width="1600" x="200" y="6400" /><rect fill="rgb(128,0,0)" height="152" stroke="black" stroke-width="5" width="776.0" x="212.0" y="6412" /><text x="236.0" y="6488.0">['loaf']</text><rect fill="rgb(128,0,0)" height="152" stroke="black" stroke-width="5" width="776.0" x="1012.0" y="6412" /><text x="1036.0" y="6488.0">['er']</text><rect fill="rgb(128,0,0)" height="176" stroke="black" stroke-width="5" width="1600" x="200" y="6600" /><rect fill="rgb(128,0,0)" height="152" stroke="black" stroke-width="5" width="776.0" x="212.0" y="6612" /><text x="236.0" y="6688.0">['seem', 'threaten']</text><rect fill="rgb(128,0,0)" height="152" stroke="black" stroke-width="5" width="776.0" x="1012.0" y="6612" /><text x="1036.0" y="6688.0">['ed']</text><rect fill="rgb(128,0,0)" height="176" stroke="black" stroke-width="5" width="1600" x="200" y="6800" /><rect fill="rgb(128,0,0)" height="152" stroke="black" stroke-width="5" width="776.0" x="212.0" y="6812" /><text x="236.0" y="6888.0">['min', 'wor']</text><rect fill="rgb(128,0,0)" height="152" stroke="black" stroke-width="5" width="776.0" x="1012.0" y="6812" /><text x="1036.0" y="6888.0">['e']</text><rect fill="rgb(128,0,0)" height="176" stroke="black" stroke-width="5" width="1600" x="200" y="7000" /><rect fill="rgb(128,0,0)" height="152" stroke="black" stroke-width="5" width="776.0" x="212.0" y="7012" /><text x="236.0" y="7088.0">['sav']</text><rect fill="rgb(128,0,0)" height="152" stroke="black" stroke-width="5" width="776.0" x="1012.0" y="7012" /><text x="1036.0" y="7088.0">['ed']</text><rect fill="rgb(128,0,0)" height="176" stroke="black" stroke-width="5" width="1600" x="200" y="7200" /><rect fill="rgb(128,0,0)" height="152" stroke="black" stroke-width="5" width="776.0" x="212.0" y="7212" /><text x="236.0" y="7288.0">['throw']</text><rect fill="rgb(128,0,0)" height="152" stroke="black" stroke-width="5" width="776.0" x="1012.0" y="7212" /><text x="1036.0" y="7288.0">['n', 'ing']</text><rect fill="rgb(128,0,0)" height="176" stroke="black" stroke-width="5" width="1600" x="200" y="7400" /><rect fill="rgb(128,0,0)" height="152" stroke="black" stroke-width="5" width="776.0" x="212.0" y="7412" /><text x="236.0" y="7488.0">['quest']</text><rect fill="rgb(128,0,0)" height="152" stroke="black" stroke-width="5" width="776.0" x="1012.0" y="7412" /><text x="1036.0" y="7488.0">['ion']</text><rect fill="rgb(128,0,0)" height="176" stroke="black" stroke-width="5" width="1600" x="200" y="7600" /><rect fill="rgb(128,0,0)" height="152" stroke="black" stroke-width="5" width="776.0" x="212.0" y="7612" /><text x="236.0" y="7688.0">['ever', 'ever']</text><rect fill="rgb(128,0,0)" height="152" stroke="black" stroke-width="5" width="776.0" x="1012.0" y="7612" /><text x="1036.0" y="7688.0">['y']</text><rect fill="rgb(128,0,0)" height="176" stroke="black" stroke-width="5" width="1600" x="200" y="7800" /><rect fill="rgb(128,0,0)" height="152" stroke="black" stroke-width="5" width="776.0" x="212.0" y="7812" /><text x="236.0" y="7888.0">['soon', 'should', 'fast']</text><rect fill="rgb(128,0,0)" height="152" stroke="black" stroke-width="5" width="776.0" x="1012.0" y="7812" /><text x="1036.0" y="7888.0">['er']</text><rect fill="rgb(128,0,0)" height="176" stroke="black" stroke-width="5" width="1600" x="200" y="8000" /><rect fill="rgb(128,0,0)" height="152" stroke="black" stroke-width="5" width="776.0" x="212.0" y="8012" /><text x="236.0" y="8088.0">['cas']</text><rect fill="rgb(128,0,0)" height="152" stroke="black" stroke-width="5" width="776.0" x="1012.0" y="8012" /><text x="1036.0" y="8088.0">['es']</text><rect fill="rgb(128,0,0)" height="176" stroke="black" stroke-width="5" width="1600" x="200" y="8200" /><rect fill="rgb(128,0,0)" height="152" stroke="black" stroke-width="5" width="776.0" x="212.0" y="8212" /><text x="236.0" y="8288.0">['though']</text><rect fill="rgb(128,0,0)" height="152" stroke="black" stroke-width="5" width="776.0" x="1012.0" y="8212" /><text x="1036.0" y="8288.0">['']</text></svg>