<?xml version="1.0" encoding="utf-8" ?>
<svg baseProfile="full" height="4292" version="1.1" width="1000" xmlns="http://www.w3.org/2000/svg" xmlns:ev="http://www.w3.org/2001/xml-events" xmlns:xlink="http://www.w3.org/1999/xlink"><defs /><rect fill="rgb(128,0,0)" height="88" stroke="black" stroke-width="5" width="800" x="100" y="100" /><rect fill="rgb(128,0,0)" height="64" stroke="black" stroke-width="5" width="376.0" x="112.0" y="112" /><text x="136.0" y="144.0">['gentlem', 'gentlem', 'gentlem', 'gentlem', 'wom']</text><rect fill="rgb(128,0,0)" height="64" stroke="black" stroke-width="5" width="376.0" x="512.0" y="112" /><text x="536.0" y="144.0">['en', 'en', 'an', 'en', 'en']</text><rect fill="rgb(128,0,0)" height="88" stroke="black" stroke-width="5" width="800" x="100" y="200" /><rect fill="rgb(128,0,0)" height="64" stroke="black" stroke-width="5" width="376.0" x="112.0" y="212" /><text x="136.0" y="244.0">['flam', 'trifl', 'mak', 'clos', 'tak']</text><rect fill="rgb(128,0,0)" height="64" stroke="black" stroke-width="5" width="376.0" x="512.0" y="212" /><text x="536.0" y="244.0">['e', 'e', 'e', 'ing', 'e']</text><rect fill="rgb(128,0,0)" height="88" stroke="black" stroke-width="5" width="800" x="100" y="300" /><rect fill="rgb(128,0,0)" height="64" stroke="black" stroke-width="5" width="376.0" x="112.0" y="312" /><text x="136.0" y="344.0">['any', 'some', 'some', 'some', 'any']</text><rect fill="rgb(128,0,0)" height="64" stroke="black" stroke-width="5" width="376.0" x="512.0" y="312" /><text x="536.0" y="344.0">['one', '', '', 'one', 'thing']</text><rect fill="rgb(128,0,0)" height="88" stroke="black" stroke-width="5" width="800" x="100" y="400" /><rect fill="rgb(128,0,0)" height="64" stroke="black" stroke-width="5" width="376.0" x="112.0" y="412" /><text x="136.0" y="444.0">['beside', 'note', 'head', 'head', 'mean']</text><rect fill="rgb(128,0,0)" height="64" stroke="black" stroke-width="5" width="376.0" x="512.0" y="412" /><text x="536.0" y="444.0">['s', '', '', 's', '']</text><rect fill="rgb(128,0,0)" height="88" stroke="black" stroke-width="5" width="800" x="100" y="500" /><rect fill="rgb(128,0,0)" height="64" stroke="black" stroke-width="5" width="376.0" x="112.0" y="512" /><text x="136.0" y="544.0">['line', 'complete', 'nee', 'line', 'save']</text><rect fill="rgb(128,0,0)" height="64" stroke="black" stroke-width="5" width="376.0" x="512.0" y="512" /><text x="536.0" y="544.0">['d', '', 'd', '', '']</text><rect fill="rgb(128,0,0)" height="88" stroke="black" stroke-width="5" width="800" x="100" y="600" /><rect fill="rgb(128,0,0)" height="64" stroke="black" stroke-width="5" width="376.0" x="112.0" y="612" /><text x="136.0" y="644.0">['immense', 'high', 'perfect', 'apparent', 'peculiar']</text><rect fill="rgb(128,0,0)" height="64" stroke="black" stroke-width="5" width="376.0" x="512.0" y="612" /><text x="536.0" y="644.0">['', 'ly', '', '', 'ly']</text><rect fill="rgb(128,0,0)" height="88" stroke="black" stroke-width="5" width="800" x="100" y="700" /><rect fill="rgb(128,0,0)" height="64" stroke="black" stroke-width="5" width="376.0" x="112.0" y="712" /><text x="136.0" y="744.0">['probabl', 'eas', 'remarkabl', 'admirabl', 'admirabl']</text><rect fill="rgb(128,0,0)" height="64" stroke="black" stroke-width="5" width="376.0" x="512.0" y="712" /><text x="536.0" y="744.0">['e', 'e', 'y', 'y', 'e']</text><rect fill="rgb(128,0,0)" height="88" stroke="black" stroke-width="5" width="800" x="100" y="800" /><rect fill="rgb(128,0,0)" height="64" stroke="black" stroke-width="5" width="376.0" x="112.0" y="812" /><text x="136.0" y="844.0">['slipp', 'pac', 'pac', 'shout', 'rubb']</text><rect fill="rgb(128,0,0)" height="64" stroke="black" stroke-width="5" width="376.0" x="512.0" y="812" /><text x="536.0" y="844.0">['ed', 'ed', 'ed', 'ed', 'ing']</text><rect fill="rgb(128,0,0)" height="88" stroke="black" stroke-width="5" width="800" x="100" y="900" /><rect fill="rgb(128,0,0)" height="64" stroke="black" stroke-width="5" width="376.0" x="112.0" y="912" /><text x="136.0" y="944.0">['join', 'crowd', 'dress', 'mark', 'motion']</text><rect fill="rgb(128,0,0)" height="64" stroke="black" stroke-width="5" width="376.0" x="512.0" y="912" /><text x="536.0" y="944.0">['ed', '', 'ed', '', '']</text><rect fill="rgb(128,0,0)" height="88" stroke="black" stroke-width="5" width="800" x="100" y="1000" /><rect fill="rgb(128,0,0)" height="64" stroke="black" stroke-width="5" width="376.0" x="112.0" y="1012" /><text x="136.0" y="1044.0">['rise', 'mistake', 'spoke', 'broke', 'had']</text><rect fill="rgb(128,0,0)" height="64" stroke="black" stroke-width="5" width="376.0" x="512.0" y="1012" /><text x="536.0" y="1044.0">['n', 'n', '', '', 'n']</text><rect fill="rgb(128,0,0)" height="88" stroke="black" stroke-width="5" width="800" x="100" y="1100" /><rect fill="rgb(128,0,0)" height="64" stroke="black" stroke-width="5" width="376.0" x="112.0" y="1112" /><text x="136.0" y="1144.0">['factor', 'difficult', 'factor', 'factor', 'difficult']</text><rect fill="rgb(128,0,0)" height="64" stroke="black" stroke-width="5" width="376.0" x="512.0" y="1112" /><text x="536.0" y="1144.0">['', 'ies', '', '', 'ies']</text><rect fill="rgb(128,0,0)" height="88" stroke="black" stroke-width="5" width="800" x="100" y="1200" /><rect fill="rgb(128,0,0)" height="64" stroke="black" stroke-width="5" width="376.0" x="112.0" y="1212" /><text x="136.0" y="1244.0">['practic', 'practic', 'practic', 'natur', 'natur']</text><rect fill="rgb(128,0,0)" height="64" stroke="black" stroke-width="5" width="376.0" x="512.0" y="1212" /><text x="536.0" y="1244.0">['e', 'ally', 'ally', 'ally', 'e']</text><rect fill="rgb(128,0,0)" height="88" stroke="black" stroke-width="5" width="800" x="100" y="1300" /><rect fill="rgb(128,0,0)" height="64" stroke="black" stroke-width="5" width="376.0" x="112.0" y="1312" /><text x="136.0" y="1344.0">['light', 'light', 'interest', 'return', 'light']</text><rect fill="rgb(128,0,0)" height="64" stroke="black" stroke-width="5" width="376.0" x="512.0" y="1312" /><text x="536.0" y="1344.0">['ed', 'ing', '', 'ed', 'ing']</text><rect fill="rgb(128,0,0)" height="88" stroke="black" stroke-width="5" width="800" x="100" y="1400" /><rect fill="rgb(128,0,0)" height="64" stroke="black" stroke-width="5" width="376.0" x="112.0" y="1412" /><text x="136.0" y="1444.0">['remain', 'remain', 'hand', 'hand', 'remain']</text><rect fill="rgb(128,0,0)" height="64" stroke="black" stroke-width="5" width="376.0" x="512.0" y="1412" /><text x="536.0" y="1444.0">['s', '', 's', 's', '']</text><rect fill="rgb(128,0,0)" height="88" stroke="black" stroke-width="5" width="800" x="100" y="1500" /><rect fill="rgb(128,0,0)" height="64" stroke="black" stroke-width="5" width="376.0" x="112.0" y="1512" /><text x="136.0" y="1544.0">['energ', 'sympath', 'energ', 'sympath', 'energ']</text><rect fill="rgb(128,0,0)" height="64" stroke="black" stroke-width="5" width="376.0" x="512.0" y="1512" /><text x="536.0" y="1544.0">['y', 'y', 'y', 'y', 'y']</text><rect fill="rgb(128,0,0)" height="88" stroke="black" stroke-width="5" width="800" x="100" y="1600" /><rect fill="rgb(128,0,0)" height="64" stroke="black" stroke-width="5" width="376.0" x="112.0" y="1612" /><text x="136.0" y="1644.0">['pass', 'turn', 'rush', 'follow', 'watch']</text><rect fill="rgb(128,0,0)" height="64" stroke="black" stroke-width="5" width="376.0" x="512.0" y="1612" /><text x="536.0" y="1644.0">['ing', '', '', 'ing', 'ed']</text><rect fill="rgb(128,0,0)" height="88" stroke="black" stroke-width="5" width="800" x="100" y="1700" /><rect fill="rgb(128,0,0)" height="64" stroke="black" stroke-width="5" width="376.0" x="112.0" y="1712" /><text x="136.0" y="1744.0">['wonder', 'ring', 'address', 'wear', 'keep']</text><rect fill="rgb(128,0,0)" height="64" stroke="black" stroke-width="5" width="376.0" x="512.0" y="1712" /><text x="536.0" y="1744.0">['', 'ing', '', '', '']</text><rect fill="rgb(128,0,0)" height="88" stroke="black" stroke-width="5" width="800" x="100" y="1800" /><rect fill="rgb(128,0,0)" height="64" stroke="black" stroke-width="5" width="376.0" x="112.0" y="1812" /><text x="136.0" y="1844.0">['myster', 'biograph', 'biograph', 'myster', 'myster']</text><rect fill="rgb(128,0,0)" height="64" stroke="black" stroke-width="5" width="376.0" x="512.0" y="1812" /><text x="536.0" y="1844.0">['y', 'ies', 'ies', 'y', 'y']</text><rect fill="rgb(128,0,0)" height="88" stroke="black" stroke-width="5" width="800" x="100" y="1900" /><rect fill="rgb(128,0,0)" height="64" stroke="black" stroke-width="5" width="376.0" x="112.0" y="1912" /><text x="136.0" y="1944.0">['how', 'how', 'how', 'how', 'how']</text><rect fill="rgb(128,0,0)" height="64" stroke="black" stroke-width="5" width="376.0" x="512.0" y="1912" /><text x="536.0" y="1944.0">['ever', '', '', '', 'ever']</text><rect fill="rgb(128,0,0)" height="88" stroke="black" stroke-width="5" width="800" x="100" y="2000" /><rect fill="rgb(128,0,0)" height="64" stroke="black" stroke-width="5" width="376.0" x="112.0" y="2012" /><text x="136.0" y="2044.0">['drive', 'drive', 'give', 'know', 'drive']</text><rect fill="rgb(128,0,0)" height="64" stroke="black" stroke-width="5" width="376.0" x="512.0" y="2012" /><text x="536.0" y="2044.0">['s', 'n', 's', 's', '']</text><rect fill="rgb(128,0,0)" height="88" stroke="black" stroke-width="5" width="800" x="100" y="2100" /><rect fill="rgb(128,0,0)" height="64" stroke="black" stroke-width="5" width="376.0" x="112.0" y="2112" /><text x="136.0" y="2144.0">['creat', 'creat', 'creat', 'creat', 'depart']</text><rect fill="rgb(128,0,0)" height="64" stroke="black" stroke-width="5" width="376.0" x="512.0" y="2112" /><text x="536.0" y="2144.0">['ure', 'ure', 'ure', 'ure', 'ed']</text><rect fill="rgb(128,0,0)" height="88" stroke="black" stroke-width="5" width="800" x="100" y="2200" /><rect fill="rgb(128,0,0)" height="64" stroke="black" stroke-width="5" width="376.0" x="112.0" y="2212" /><text x="136.0" y="2244.0">['scen', 'los', 'sho', 'los', 'sho']</text><rect fill="rgb(128,0,0)" height="64" stroke="black" stroke-width="5" width="376.0" x="512.0" y="2212" /><text x="536.0" y="2244.0">['t', 't', 'e', 't', 'e']</text><rect fill="rgb(128,0,0)" height="88" stroke="black" stroke-width="5" width="800" x="100" y="2300" /><rect fill="rgb(128,0,0)" height="64" stroke="black" stroke-width="5" width="376.0" x="112.0" y="2312" /><text x="136.0" y="2344.0">['get', 'put', 'get', 'put', 'put']</text><rect fill="rgb(128,0,0)" height="64" stroke="black" stroke-width="5" width="376.0" x="512.0" y="2312" /><text x="536.0" y="2344.0">['', '', 'ting', 'ting', 'ting']</text><rect fill="rgb(128,0,0)" height="88" stroke="black" stroke-width="5" width="800" x="100" y="2400" /><rect fill="rgb(128,0,0)" height="64" stroke="black" stroke-width="5" width="376.0" x="112.0" y="2412" /><text x="136.0" y="2444.0">['yours', 'yours', 'yours', 'its', 'yours']</text><rect fill="rgb(128,0,0)" height="64" stroke="black" stroke-width="5" width="376.0" x="512.0" y="2412" /><text x="536.0" y="2444.0">['elf', '', 'elf', '', '']</text><rect fill="rgb(128,0,0)" height="88" stroke="black" stroke-width="5" width="800" x="100" y="2500" /><rect fill="rgb(128,0,0)" height="64" stroke="black" stroke-width="5" width="376.0" x="112.0" y="2512" /><text x="136.0" y="2544.0">['live', 'reache', 'live', 'live', 'live']</text><rect fill="rgb(128,0,0)" height="64" stroke="black" stroke-width="5" width="376.0" x="512.0" y="2512" /><text x="536.0" y="2544.0">['s', 'd', 'd', 's', 'd']</text><rect fill="rgb(128,0,0)" height="88" stroke="black" stroke-width="5" width="800" x="100" y="2600" /><rect fill="rgb(128,0,0)" height="64" stroke="black" stroke-width="5" width="376.0" x="112.0" y="2612" /><text x="136.0" y="2644.0">['importan', 'importan', 'instan', 'instan', 'importan']</text><rect fill="rgb(128,0,0)" height="64" stroke="black" stroke-width="5" width="376.0" x="512.0" y="2612" /><text x="536.0" y="2644.0">['t', 't', 'ce', 't', 't']</text><rect fill="rgb(128,0,0)" height="88" stroke="black" stroke-width="5" width="800" x="100" y="2700" /><rect fill="rgb(128,0,0)" height="64" stroke="black" stroke-width="5" width="376.0" x="112.0" y="2712" /><text x="136.0" y="2744.0">['stick', 'stick', 'stand', 'stick', 'stand']</text><rect fill="rgb(128,0,0)" height="64" stroke="black" stroke-width="5" width="376.0" x="512.0" y="2712" /><text x="536.0" y="2744.0">['s', 'ing', 's', 's', 's']</text><rect fill="rgb(128,0,0)" height="88" stroke="black" stroke-width="5" width="800" x="100" y="2800" /><rect fill="rgb(128,0,0)" height="64" stroke="black" stroke-width="5" width="376.0" x="112.0" y="2812" /><text x="136.0" y="2844.0">['observ', 'compromis', 'compromis', 'glanc', 'glanc']</text><rect fill="rgb(128,0,0)" height="64" stroke="black" stroke-width="5" width="376.0" x="512.0" y="2812" /><text x="536.0" y="2844.0">['ed', 'ing', 'e', 'ed', 'ed']</text><rect fill="rgb(128,0,0)" height="88" stroke="black" stroke-width="5" width="800" x="100" y="2900" /><rect fill="rgb(128,0,0)" height="64" stroke="black" stroke-width="5" width="376.0" x="112.0" y="2912" /><text x="136.0" y="2944.0">['mad', 'her', 'don', 'don', 'mad']</text><rect fill="rgb(128,0,0)" height="64" stroke="black" stroke-width="5" width="376.0" x="512.0" y="2912" /><text x="536.0" y="2944.0">['', 'e', '', '', '']</text><rect fill="rgb(128,0,0)" height="88" stroke="black" stroke-width="5" width="800" x="100" y="3000" /><rect fill="rgb(128,0,0)" height="64" stroke="black" stroke-width="5" width="376.0" x="112.0" y="3012" /><text x="136.0" y="3044.0">['stat', 'stat', 'resolut', 'stat', 'stat']</text><rect fill="rgb(128,0,0)" height="64" stroke="black" stroke-width="5" width="376.0" x="512.0" y="3012" /><text x="536.0" y="3044.0">['ion', 'e', 'ion', 'e', 'e']</text><rect fill="rgb(128,0,0)" height="88" stroke="black" stroke-width="5" width="800" x="100" y="3100" /><rect fill="rgb(128,0,0)" height="64" stroke="black" stroke-width="5" width="376.0" x="112.0" y="3112" /><text x="136.0" y="3144.0">['wish', 'reach', 'reach', 'wish', 'wish']</text><rect fill="rgb(128,0,0)" height="64" stroke="black" stroke-width="5" width="376.0" x="512.0" y="3112" /><text x="536.0" y="3144.0">['', 'es', '', '', '']</text><rect fill="rgb(128,0,0)" height="88" stroke="black" stroke-width="5" width="800" x="100" y="3200" /><rect fill="rgb(128,0,0)" height="64" stroke="black" stroke-width="5" width="376.0" x="112.0" y="3212" /><text x="136.0" y="3244.0">['shutt', 'loaf', 'loaf', 'loaf', 'shutt']</text><rect fill="rgb(128,0,0)" height="64" stroke="black" stroke-width="5" width="376.0" x="512.0" y="3212" /><text x="536.0" y="3244.0">['ing', 'er', 'ing', 'ing', 'ing']</text><rect fill="rgb(128,0,0)" height="88" stroke="black" stroke-width="5" width="800" x="100" y="3300" /><rect fill="rgb(128,0,0)" height="64" stroke="black" stroke-width="5" width="376.0" x="112.0" y="3312" /><text x="136.0" y="3344.0">['appear', 'appear', 'seem', 'seem', 'appear']</text><rect fill="rgb(128,0,0)" height="64" stroke="black" stroke-width="5" width="376.0" x="512.0" y="3312" /><text x="536.0" y="3344.0">['s', 'ed', 's', 's', 's']</text><rect fill="rgb(128,0,0)" height="88" stroke="black" stroke-width="5" width="800" x="100" y="3400" /><rect fill="rgb(128,0,0)" height="64" stroke="black" stroke-width="5" width="376.0" x="112.0" y="3412" /><text x="136.0" y="3444.0">['min', 'min', 'wor', 'min', 'wor']</text><rect fill="rgb(128,0,0)" height="64" stroke="black" stroke-width="5" width="376.0" x="512.0" y="3412" /><text x="536.0" y="3444.0">['d', 'd', 'd', 'd', 'd']</text><rect fill="rgb(128,0,0)" height="88" stroke="black" stroke-width="5" width="800" x="100" y="3500" /><rect fill="rgb(128,0,0)" height="64" stroke="black" stroke-width="5" width="376.0" x="112.0" y="3512" /><text x="136.0" y="3544.0">['fac', 'sav', 'sav', 'sav', 'sav']</text><rect fill="rgb(128,0,0)" height="64" stroke="black" stroke-width="5" width="376.0" x="512.0" y="3512" /><text x="536.0" y="3544.0">['ed', 'ed', 'ed', 'e', 'ed']</text><rect fill="rgb(128,0,0)" height="88" stroke="black" stroke-width="5" width="800" x="100" y="3600" /><rect fill="rgb(128,0,0)" height="64" stroke="black" stroke-width="5" width="376.0" x="112.0" y="3612" /><text x="136.0" y="3644.0">['draw', 'throw', 'throw', 'throw', 'throw']</text><rect fill="rgb(128,0,0)" height="64" stroke="black" stroke-width="5" width="376.0" x="512.0" y="3612" /><text x="536.0" y="3644.0">['ing', 'n', 'ing', '', '']</text><rect fill="rgb(128,0,0)" height="88" stroke="black" stroke-width="5" width="800" x="100" y="3700" /><rect fill="rgb(128,0,0)" height="64" stroke="black" stroke-width="5" width="376.0" x="112.0" y="3712" /><text x="136.0" y="3744.0">['quest', 'miss', 'miss', 'quest', 'quest']</text><rect fill="rgb(128,0,0)" height="64" stroke="black" stroke-width="5" width="376.0" x="512.0" y="3712" /><text x="536.0" y="3744.0">['ion', '', '', '', 'ion']</text><rect fill="rgb(128,0,0)" height="88" stroke="black" stroke-width="5" width="800" x="100" y="3800" /><rect fill="rgb(128,0,0)" height="64" stroke="black" stroke-width="5" width="376.0" x="112.0" y="3812" /><text x="136.0" y="3844.0">['man', 'man', 'man', 'man', 'mood']</text><rect fill="rgb(128,0,0)" height="64" stroke="black" stroke-width="5" width="376.0" x="512.0" y="3812" /><text x="536.0" y="3844.0">['y', '', 'y', 'y', '']</text><rect fill="rgb(128,0,0)" height="88" stroke="black" stroke-width="5" width="800" x="100" y="3900" /><rect fill="rgb(128,0,0)" height="64" stroke="black" stroke-width="5" width="376.0" x="112.0" y="3912" /><text x="136.0" y="3944.0">['fast', 'form', 'should', 'form', 'form']</text><rect fill="rgb(128,0,0)" height="64" stroke="black" stroke-width="5" width="376.0" x="512.0" y="3912" /><text x="536.0" y="3944.0">['', 'er', '', 'er', 'er']</text><rect fill="rgb(128,0,0)" height="88" stroke="black" stroke-width="5" width="800" x="100" y="4000" /><rect fill="rgb(128,0,0)" height="64" stroke="black" stroke-width="5" width="376.0" x="112.0" y="4012" /><text x="136.0" y="4044.0">['desir', 'cas', 'desir', 'cas', 'desir']</text><rect fill="rgb(128,0,0)" height="64" stroke="black" stroke-width="5" width="376.0" x="512.0" y="4012" /><text x="536.0" y="4044.0">['e', 'e', 'es', 'e', 'es']</text><rect fill="rgb(128,0,0)" height="88" stroke="black" stroke-width="5" width="800" x="100" y="4100" /><rect fill="rgb(128,0,0)" height="64" stroke="black" stroke-width="5" width="376.0" x="112.0" y="4112" /><text x="136.0" y="4144.0">['though', 'sea', 'though', 'though', 'sea']</text><rect fill="rgb(128,0,0)" height="64" stroke="black" stroke-width="5" width="376.0" x="512.0" y="4112" /><text x="536.0" y="4144.0">['t', '', 't', '', 't']</text></svg>