<?xml version="1.0" encoding="utf-8" ?>
<svg baseProfile="full" height="4292.0" style="font-size:16.0" version="1.1" width="1000.0" xmlns="http://www.w3.org/2000/svg" xmlns:ev="http://www.w3.org/2001/xml-events" xmlns:xlink="http://www.w3.org/1999/xlink"><defs /><rect fill="rgb(128,0,0)" height="88.0" stroke="black" stroke-width="5" width="800.0" x="100.0" y="100.0" /><rect fill="rgb(128,0,0)" height="64.0" stroke="black" stroke-width="5" width="376.0" x="112.0" y="112.0" /><text x="124.0" y="128.0">gentlem, wom</text><rect fill="rgb(128,0,0)" height="64.0" stroke="black" stroke-width="5" width="376.0" x="512.0" y="112.0" /><text x="524.0" y="128.0">an, en</text><rect fill="rgb(128,0,0)" height="88.0" stroke="black" stroke-width="5" width="800.0" x="100.0" y="300.0" /><rect fill="rgb(128,0,0)" height="64.0" stroke="black" stroke-width="5" width="376.0" x="112.0" y="312.0" /><text x="124.0" y="328.0">any, some</text><rect fill="rgb(128,0,0)" height="64.0" stroke="black" stroke-width="5" width="376.0" x="512.0" y="312.0" /><text x="524.0" y="328.0">∅, one, thing</text><rect fill="rgb(128,0,0)" height="88.0" stroke="black" stroke-width="5" width="800.0" x="100.0" y="1100.0" /><rect fill="rgb(128,0,0)" height="64.0" stroke="black" stroke-width="5" width="376.0" x="112.0" y="1112.0" /><text x="124.0" y="1128.0">difficult, factor</text><rect fill="rgb(128,0,0)" height="64.0" stroke="black" stroke-width="5" width="376.0" x="512.0" y="1112.0" /><text x="524.0" y="1128.0">∅, ies</text><rect fill="rgb(128,0,0)" height="88.0" stroke="black" stroke-width="5" width="800.0" x="100.0" y="1500.0" /><rect fill="rgb(128,0,0)" height="64.0" stroke="black" stroke-width="5" width="376.0" x="112.0" y="1512.0" /><text x="124.0" y="1528.0">sympath, energ</text><rect fill="rgb(128,0,0)" height="64.0" stroke="black" stroke-width="5" width="376.0" x="512.0" y="1512.0" /><text x="524.0" y="1528.0">etic, y</text><rect fill="rgb(128,0,0)" height="88.0" stroke="black" stroke-width="5" width="800.0" x="100.0" y="1900.0" /><rect fill="rgb(128,0,0)" height="64.0" stroke="black" stroke-width="5" width="376.0" x="112.0" y="1912.0" /><text x="124.0" y="1928.0">what, how</text><rect fill="rgb(128,0,0)" height="64.0" stroke="black" stroke-width="5" width="376.0" x="512.0" y="1912.0" /><text x="524.0" y="1928.0">∅, ever</text><rect fill="rgb(128,0,0)" height="88.0" stroke="black" stroke-width="5" width="800.0" x="100.0" y="2100.0" /><rect fill="rgb(128,0,0)" height="64.0" stroke="black" stroke-width="5" width="376.0" x="112.0" y="2112.0" /><text x="124.0" y="2128.0">depart, creat</text><rect fill="rgb(128,0,0)" height="64.0" stroke="black" stroke-width="5" width="376.0" x="512.0" y="2112.0" /><text x="524.0" y="2128.0">ed, ure</text><rect fill="rgb(128,0,0)" height="88.0" stroke="black" stroke-width="5" width="800.0" x="100.0" y="2400.0" /><rect fill="rgb(128,0,0)" height="64.0" stroke="black" stroke-width="5" width="376.0" x="112.0" y="2412.0" /><text x="124.0" y="2428.0">its, yours</text><rect fill="rgb(128,0,0)" height="64.0" stroke="black" stroke-width="5" width="376.0" x="512.0" y="2412.0" /><text x="524.0" y="2428.0">∅, elf</text><rect fill="rgb(128,0,0)" height="88.0" stroke="black" stroke-width="5" width="800.0" x="100.0" y="2600.0" /><rect fill="rgb(128,0,0)" height="64.0" stroke="black" stroke-width="5" width="376.0" x="112.0" y="2612.0" /><text x="124.0" y="2628.0">instan, importan</text><rect fill="rgb(128,0,0)" height="64.0" stroke="black" stroke-width="5" width="376.0" x="512.0" y="2612.0" /><text x="524.0" y="2628.0">ce, t</text><rect fill="rgb(128,0,0)" height="88.0" stroke="black" stroke-width="5" width="800.0" x="100.0" y="2700.0" /><rect fill="rgb(128,0,0)" height="64.0" stroke="black" stroke-width="5" width="376.0" x="112.0" y="2712.0" /><text x="124.0" y="2728.0">stick, stand</text><rect fill="rgb(128,0,0)" height="64.0" stroke="black" stroke-width="5" width="376.0" x="512.0" y="2712.0" /><text x="524.0" y="2728.0">ing, s</text><rect fill="rgb(128,0,0)" height="88.0" stroke="black" stroke-width="5" width="800.0" x="100.0" y="3000.0" /><rect fill="rgb(128,0,0)" height="64.0" stroke="black" stroke-width="5" width="376.0" x="112.0" y="3012.0" /><text x="124.0" y="3028.0">stat, resolut</text><rect fill="rgb(128,0,0)" height="64.0" stroke="black" stroke-width="5" width="376.0" x="512.0" y="3012.0" /><text x="524.0" y="3028.0">e, ion</text><rect fill="rgb(128,0,0)" height="88.0" stroke="black" stroke-width="5" width="800.0" x="100.0" y="3100.0" /><rect fill="rgb(128,0,0)" height="64.0" stroke="black" stroke-width="5" width="376.0" x="112.0" y="3112.0" /><text x="124.0" y="3128.0">wish, reach</text><rect fill="rgb(128,0,0)" height="64.0" stroke="black" stroke-width="5" width="376.0" x="512.0" y="3112.0" /><text x="524.0" y="3128.0">∅, ed, es</text><rect fill="rgb(128,0,0)" height="88.0" stroke="black" stroke-width="5" width="800.0" x="100.0" y="3200.0" /><rect fill="rgb(128,0,0)" height="64.0" stroke="black" stroke-width="5" width="376.0" x="112.0" y="3212.0" /><text x="124.0" y="3228.0">shutt, loaf</text><rect fill="rgb(128,0,0)" height="64.0" stroke="black" stroke-width="5" width="376.0" x="512.0" y="3212.0" /><text x="524.0" y="3228.0">er, ing</text><rect fill="rgb(128,0,0)" height="88.0" stroke="black" stroke-width="5" width="800.0" x="100.0" y="3500.0" /><rect fill="rgb(128,0,0)" height="64.0" stroke="black" stroke-width="5" width="376.0" x="112.0" y="3512.0" /><text x="124.0" y="3528.0">sav, fac</text><rect fill="rgb(128,0,0)" height="64.0" stroke="black" stroke-width="5" width="376.0" x="512.0" y="3512.0" /><text x="524.0" y="3528.0">e, ed</text><rect fill="rgb(128,0,0)" height="88.0" stroke="black" stroke-width="5" width="800.0" x="100.0" y="3600.0" /><rect fill="rgb(128,0,0)" height="64.0" stroke="black" stroke-width="5" width="376.0" x="112.0" y="3612.0" /><text x="124.0" y="3628.0">draw, throw</text><rect fill="rgb(128,0,0)" height="64.0" stroke="black" stroke-width="5" width="376.0" x="512.0" y="3612.0" /><text x="524.0" y="3628.0">∅, ing, n</text><rect fill="rgb(128,0,0)" height="88.0" stroke="black" stroke-width="5" width="800.0" x="100.0" y="3700.0" /><rect fill="rgb(128,0,0)" height="64.0" stroke="black" stroke-width="5" width="376.0" x="112.0" y="3712.0" /><text x="124.0" y="3728.0">miss, quest</text><rect fill="rgb(128,0,0)" height="64.0" stroke="black" stroke-width="5" width="376.0" x="512.0" y="3712.0" /><text x="524.0" y="3728.0">∅, ion</text><rect fill="rgb(128,0,0)" height="88.0" stroke="black" stroke-width="5" width="800.0" x="100.0" y="4000.0" /><rect fill="rgb(128,0,0)" height="64.0" stroke="black" stroke-width="5" width="376.0" x="112.0" y="4012.0" /><text x="124.0" y="4028.0">desir, cas</text><rect fill="rgb(128,0,0)" height="64.0" stroke="black" stroke-width="5" width="376.0" x="512.0" y="4012.0" /><text x="524.0" y="4028.0">e, es</text><rect fill="rgb(128,0,0)" height="88.0" stroke="black" stroke-width="5" width="800.0" x="100.0" y="4100.0" /><rect fill="rgb(128,0,0)" height="64.0" stroke="black" stroke-width="5" width="376.0" x="112.0" y="4112.0" /><text x="124.0" y="4128.0">though, sea</text><rect fill="rgb(128,0,0)" height="64.0" stroke="black" stroke-width="5" width="376.0" x="512.0" y="4112.0" /><text x="524.0" y="4128.0">∅, t</text><rect fill="rgb(128,0,0)" height="88.0" stroke="black" stroke-width="5" width="800.0" x="100.0" y="1200.0" /><rect fill="rgb(128,0,0)" height="64.0" stroke="black" stroke-width="5" width="376.0" x="112.0" y="1212.0" /><text x="124.0" y="1228.0">natur, practic, fin</text><rect fill="rgb(128,0,0)" height="64.0" stroke="black" stroke-width="5" width="376.0" x="512.0" y="1212.0" /><text x="524.0" y="1228.0">ally, e</text><rect fill="rgb(128,0,0)" height="88.0" stroke="black" stroke-width="5" width="800.0" x="100.0" y="2000.0" /><rect fill="rgb(128,0,0)" height="64.0" stroke="black" stroke-width="5" width="376.0" x="112.0" y="2012.0" /><text x="124.0" y="2028.0">give, drive, know</text><rect fill="rgb(128,0,0)" height="64.0" stroke="black" stroke-width="5" width="376.0" x="512.0" y="2012.0" /><text x="524.0" y="2028.0">∅, n, s</text><rect fill="rgb(128,0,0)" height="88.0" stroke="black" stroke-width="5" width="800.0" x="100.0" y="2200.0" /><rect fill="rgb(128,0,0)" height="64.0" stroke="black" stroke-width="5" width="376.0" x="112.0" y="2212.0" /><text x="124.0" y="2228.0">los, sho, scen</text><rect fill="rgb(128,0,0)" height="64.0" stroke="black" stroke-width="5" width="376.0" x="512.0" y="2212.0" /><text x="524.0" y="2228.0">e, t</text><rect fill="rgb(128,0,0)" height="88.0" stroke="black" stroke-width="5" width="800.0" x="100.0" y="2300.0" /><rect fill="rgb(128,0,0)" height="64.0" stroke="black" stroke-width="5" width="376.0" x="112.0" y="2312.0" /><text x="124.0" y="2328.0">put, sit, get</text><rect fill="rgb(128,0,0)" height="64.0" stroke="black" stroke-width="5" width="376.0" x="512.0" y="2312.0" /><text x="524.0" y="2328.0">∅, ting</text><rect fill="rgb(128,0,0)" height="88.0" stroke="black" stroke-width="5" width="800.0" x="100.0" y="2800.0" /><rect fill="rgb(128,0,0)" height="64.0" stroke="black" stroke-width="5" width="376.0" x="112.0" y="2812.0" /><text x="124.0" y="2828.0">compromis, glanc, observ</text><rect fill="rgb(128,0,0)" height="64.0" stroke="black" stroke-width="5" width="376.0" x="512.0" y="2812.0" /><text x="524.0" y="2828.0">e, ed, ing</text><rect fill="rgb(128,0,0)" height="88.0" stroke="black" stroke-width="5" width="800.0" x="100.0" y="3300.0" /><rect fill="rgb(128,0,0)" height="64.0" stroke="black" stroke-width="5" width="376.0" x="112.0" y="3312.0" /><text x="124.0" y="3328.0">threaten, appear, seem</text><rect fill="rgb(128,0,0)" height="64.0" stroke="black" stroke-width="5" width="376.0" x="512.0" y="3312.0" /><text x="524.0" y="3328.0">ed, s</text><rect fill="rgb(128,0,0)" height="88.0" stroke="black" stroke-width="5" width="800.0" x="100.0" y="3400.0" /><rect fill="rgb(128,0,0)" height="64.0" stroke="black" stroke-width="5" width="376.0" x="112.0" y="3412.0" /><text x="124.0" y="3428.0">har, wor, min</text><rect fill="rgb(128,0,0)" height="64.0" stroke="black" stroke-width="5" width="376.0" x="512.0" y="3412.0" /><text x="524.0" y="3428.0">d, e</text><rect fill="rgb(128,0,0)" height="88.0" stroke="black" stroke-width="5" width="800.0" x="100.0" y="3800.0" /><rect fill="rgb(128,0,0)" height="64.0" stroke="black" stroke-width="5" width="376.0" x="112.0" y="3812.0" /><text x="124.0" y="3828.0">mood, man, ever</text><rect fill="rgb(128,0,0)" height="64.0" stroke="black" stroke-width="5" width="376.0" x="512.0" y="3812.0" /><text x="524.0" y="3828.0">∅, y</text><rect fill="rgb(128,0,0)" height="88.0" stroke="black" stroke-width="5" width="800.0" x="100.0" y="700.0" /><rect fill="rgb(128,0,0)" height="64.0" stroke="black" stroke-width="5" width="376.0" x="112.0" y="712.0" /><text x="124.0" y="728.0">remarkabl, admirabl, eas, probabl</text><rect fill="rgb(128,0,0)" height="64.0" stroke="black" stroke-width="5" width="376.0" x="512.0" y="712.0" /><text x="524.0" y="728.0">e, y</text><rect fill="rgb(128,0,0)" height="88.0" stroke="black" stroke-width="5" width="800.0" x="100.0" y="1300.0" /><rect fill="rgb(128,0,0)" height="64.0" stroke="black" stroke-width="5" width="376.0" x="112.0" y="1312.0" /><text x="124.0" y="1328.0">walk, interest, return, light</text><rect fill="rgb(128,0,0)" height="64.0" stroke="black" stroke-width="5" width="376.0" x="512.0" y="1312.0" /><text x="524.0" y="1328.0">∅, ed, ing, s</text><rect fill="rgb(128,0,0)" height="88.0" stroke="black" stroke-width="5" width="800.0" x="100.0" y="1400.0" /><rect fill="rgb(128,0,0)" height="64.0" stroke="black" stroke-width="5" width="376.0" x="112.0" y="1412.0" /><text x="124.0" y="1428.0">hand, remain, call, suit</text><rect fill="rgb(128,0,0)" height="64.0" stroke="black" stroke-width="5" width="376.0" x="512.0" y="1412.0" /><text x="524.0" y="1428.0">∅, ed, s</text><rect fill="rgb(128,0,0)" height="88.0" stroke="black" stroke-width="5" width="800.0" x="100.0" y="3900.0" /><rect fill="rgb(128,0,0)" height="64.0" stroke="black" stroke-width="5" width="376.0" x="112.0" y="3912.0" /><text x="124.0" y="3928.0">form, should, fast, soon</text><rect fill="rgb(128,0,0)" height="64.0" stroke="black" stroke-width="5" width="376.0" x="512.0" y="3912.0" /><text x="524.0" y="3928.0">∅, er</text><rect fill="rgb(128,0,0)" height="88.0" stroke="black" stroke-width="5" width="800.0" x="100.0" y="2500.0" /><rect fill="rgb(128,0,0)" height="64.0" stroke="black" stroke-width="5" width="376.0" x="112.0" y="2512.0" /><text x="124.0" y="2528.0">carrie, wishe, reache, edge, live</text><rect fill="rgb(128,0,0)" height="64.0" stroke="black" stroke-width="5" width="376.0" x="512.0" y="2512.0" /><text x="524.0" y="2528.0">d, s</text><rect fill="rgb(128,0,0)" height="88.0" stroke="black" stroke-width="5" width="800.0" x="100.0" y="2900.0" /><rect fill="rgb(128,0,0)" height="64.0" stroke="black" stroke-width="5" width="376.0" x="112.0" y="2912.0" /><text x="124.0" y="2928.0">born, mad, far, don, her</text><rect fill="rgb(128,0,0)" height="64.0" stroke="black" stroke-width="5" width="376.0" x="512.0" y="2912.0" /><text x="524.0" y="2928.0">∅, e</text><rect fill="rgb(128,0,0)" height="88.0" stroke="black" stroke-width="5" width="800.0" x="100.0" y="1800.0" /><rect fill="rgb(128,0,0)" height="64.0" stroke="black" stroke-width="5" width="376.0" x="112.0" y="1812.0" /><text x="124.0" y="1828.0">carr, famil, simplif, biograph, myster, stor</text><rect fill="rgb(128,0,0)" height="64.0" stroke="black" stroke-width="5" width="376.0" x="512.0" y="1812.0" /><text x="524.0" y="1828.0">ies, y</text><rect fill="rgb(128,0,0)" height="88.0" stroke="black" stroke-width="5" width="800.0" x="100.0" y="1000.0" /><rect fill="rgb(128,0,0)" height="64.0" stroke="black" stroke-width="5" width="376.0" x="112.0" y="1012.0" /><text x="124.0" y="1028.0">mistake, rise, see, spoke, broke, had, take, bohemia, </text><text x="124.0" y="1052.0">the</text><rect fill="rgb(128,0,0)" height="64.0" stroke="black" stroke-width="5" width="376.0" x="512.0" y="1012.0" /><text x="524.0" y="1028.0">∅, n</text><rect fill="rgb(128,0,0)" height="88.0" stroke="black" stroke-width="5" width="800.0" x="100.0" y="200.0" /><rect fill="rgb(128,0,0)" height="64.0" stroke="black" stroke-width="5" width="376.0" x="112.0" y="212.0" /><text x="124.0" y="228.0">smok, not, trifl, flam, com, clos, driv, mak, hav, tak</text><rect fill="rgb(128,0,0)" height="64.0" stroke="black" stroke-width="5" width="376.0" x="512.0" y="212.0" /><text x="524.0" y="228.0">e, ing</text><rect fill="rgb(128,0,0)" height="88.0" stroke="black" stroke-width="5" width="800.0" x="100.0" y="1600.0" /><rect fill="rgb(128,0,0)" height="64.0" stroke="black" stroke-width="5" width="376.0" x="112.0" y="1612.0" /><text x="124.0" y="1628.0">open, watch, pass, secret, search, wait, follow, look, </text><text x="124.0" y="1652.0">look, look</text><rect fill="rgb(128,0,0)" height="64.0" stroke="black" stroke-width="5" width="376.0" x="512.0" y="1612.0" /><text x="524.0" y="1628.0">∅, ed, ing</text><rect fill="rgb(128,0,0)" height="88.0" stroke="black" stroke-width="5" width="800.0" x="100.0" y="1700.0" /><rect fill="rgb(128,0,0)" height="64.0" stroke="black" stroke-width="5" width="376.0" x="112.0" y="1712.0" /><text x="124.0" y="1728.0">consult, thank, wear, keep, wear, wear, ring, thank, </text><text x="124.0" y="1752.0">even, wear</text><rect fill="rgb(128,0,0)" height="64.0" stroke="black" stroke-width="5" width="376.0" x="512.0" y="1712.0" /><text x="524.0" y="1728.0">∅, ing</text><rect fill="rgb(128,0,0)" height="88.0" stroke="black" stroke-width="5" width="800.0" x="100.0" y="800.0" /><rect fill="rgb(128,0,0)" height="64.0" stroke="black" stroke-width="5" width="376.0" x="112.0" y="812.0" /><text x="124.0" y="828.0">shout, dash, wav, laugh, employ, wav, balanc, shout, </text><text x="124.0" y="852.0">pac, pac</text><rect fill="rgb(128,0,0)" height="64.0" stroke="black" stroke-width="5" width="376.0" x="512.0" y="812.0" /><text x="524.0" y="828.0">ed, ing</text><rect fill="rgb(128,0,0)" height="88.0" stroke="black" stroke-width="5" width="800.0" x="100.0" y="900.0" /><rect fill="rgb(128,0,0)" height="64.0" stroke="black" stroke-width="5" width="376.0" x="112.0" y="912.0" /><text x="124.0" y="928.0">mark, roll, mind, join, crowd, roll, sound, motion, listen, </text><text x="124.0" y="952.0">crowd</text><rect fill="rgb(128,0,0)" height="64.0" stroke="black" stroke-width="5" width="376.0" x="512.0" y="912.0" /><text x="524.0" y="928.0">∅, ed</text><rect fill="rgb(128,0,0)" height="88.0" stroke="black" stroke-width="5" width="800.0" x="100.0" y="500.0" /><rect fill="rgb(128,0,0)" height="64.0" stroke="black" stroke-width="5" width="376.0" x="112.0" y="512.0" /><text x="124.0" y="528.0">face, change, complete, raise, imitate, change, cause, </text><text x="124.0" y="552.0">face, refuse, nee</text><rect fill="rgb(128,0,0)" height="64.0" stroke="black" stroke-width="5" width="376.0" x="512.0" y="512.0" /><text x="524.0" y="528.0">∅, d</text><rect fill="rgb(128,0,0)" height="88.0" stroke="black" stroke-width="5" width="800.0" x="100.0" y="600.0" /><rect fill="rgb(128,0,0)" height="64.0" stroke="black" stroke-width="5" width="376.0" x="112.0" y="612.0" /><text x="124.0" y="628.0">careless, close, present, fine, perfect, present, quiet, </text><text x="124.0" y="652.0">master, careless, former</text><rect fill="rgb(128,0,0)" height="64.0" stroke="black" stroke-width="5" width="376.0" x="512.0" y="612.0" /><text x="524.0" y="628.0">∅, ly</text><rect fill="rgb(128,0,0)" height="88.0" stroke="black" stroke-width="5" width="800.0" x="100.0" y="400.0" /><rect fill="rgb(128,0,0)" height="64.0" stroke="black" stroke-width="5" width="376.0" x="112.0" y="412.0" /><text x="124.0" y="428.0">doing, doubt, eye, crime, blind, front, other, visit, </text><text x="124.0" y="452.0">voice, begin</text><rect fill="rgb(128,0,0)" height="64.0" stroke="black" stroke-width="5" width="376.0" x="512.0" y="412.0" /><text x="524.0" y="428.0">∅, s</text></svg>