<?xml version="1.0" encoding="utf-8" ?>
<svg baseProfile="full" height="4292.0" version="1.1" width="1000.0" xmlns="http://www.w3.org/2000/svg" xmlns:ev="http://www.w3.org/2001/xml-events" xmlns:xlink="http://www.w3.org/1999/xlink"><defs /><rect fill="rgb(128,0,0)" height="88.0" stroke="black" stroke-width="5" width="800.0" x="100.0" y="400.0" /><rect fill="rgb(128,0,0)" height="64.0" stroke="black" stroke-width="5" width="376.0" x="112.0" y="412.0" /><text style="font-size:16px" x="124.0" y="428.0">pass, fail, search, secret, follow, rush, show, secret, </text><text style="font-size:16px" x="124.0" y="452.0">open, pass</text><rect fill="rgb(128,0,0)" height="64.0" stroke="black" stroke-width="5" width="376.0" x="512.0" y="412.0" /><text style="font-size:16px" x="524.0" y="428.0">∅, ed, ing</text><rect fill="rgb(128,0,0)" height="88.0" stroke="black" stroke-width="5" width="800.0" x="100.0" y="100.0" /><rect fill="rgb(128,0,0)" height="64.0" stroke="black" stroke-width="5" width="376.0" x="112.0" y="112.0" /><text style="font-size:16px" x="124.0" y="128.0">train, dress, remember, furnish, mind, end, pull, listen, </text><text style="font-size:16px" x="124.0" y="152.0">join, motion</text><rect fill="rgb(128,0,0)" height="64.0" stroke="black" stroke-width="5" width="376.0" x="512.0" y="112.0" /><text style="font-size:16px" x="524.0" y="128.0">∅, ed</text><rect fill="rgb(128,0,0)" height="88.0" stroke="black" stroke-width="5" width="800.0" x="100.0" y="0.0" /><rect fill="rgb(128,0,0)" height="64.0" stroke="black" stroke-width="5" width="376.0" x="112.0" y="12.0" /><text style="font-size:16px" x="124.0" y="28.0">wav, extend, liv, rubb, shout, rubb, slipp, wav, star, </text><text style="font-size:16px" x="124.0" y="52.0">slipp</text><rect fill="rgb(128,0,0)" height="64.0" stroke="black" stroke-width="5" width="376.0" x="512.0" y="12.0" /><text style="font-size:16px" x="524.0" y="28.0">ed, ing</text><rect fill="rgb(128,0,0)" height="88.0" stroke="black" stroke-width="5" width="800.0" x="100.0" y="200.0" /><rect fill="rgb(128,0,0)" height="64.0" stroke="black" stroke-width="5" width="376.0" x="112.0" y="212.0" /><text style="font-size:16px" x="124.0" y="228.0">interest, return, light, walk</text><rect fill="rgb(128,0,0)" height="64.0" stroke="black" stroke-width="5" width="376.0" x="512.0" y="212.0" /><text style="font-size:16px" x="524.0" y="228.0">∅, ed, ing, s</text><rect fill="rgb(128,0,0)" height="88.0" stroke="black" stroke-width="5" width="800.0" x="100.0" y="600.0" /><rect fill="rgb(128,0,0)" height="64.0" stroke="black" stroke-width="5" width="376.0" x="112.0" y="612.0" /><text style="font-size:16px" x="124.0" y="628.0">glanc, compromis, observ</text><rect fill="rgb(128,0,0)" height="64.0" stroke="black" stroke-width="5" width="376.0" x="512.0" y="612.0" /><text style="font-size:16px" x="524.0" y="628.0">e, ed, ing</text><rect fill="rgb(128,0,0)" height="88.0" stroke="black" stroke-width="5" width="800.0" x="100.0" y="300.0" /><rect fill="rgb(128,0,0)" height="64.0" stroke="black" stroke-width="5" width="376.0" x="112.0" y="312.0" /><text style="font-size:16px" x="124.0" y="328.0">call, suit, remain, hand</text><rect fill="rgb(128,0,0)" height="64.0" stroke="black" stroke-width="5" width="376.0" x="512.0" y="312.0" /><text style="font-size:16px" x="524.0" y="328.0">∅, ed, s</text><rect fill="rgb(128,0,0)" height="88.0" stroke="black" stroke-width="5" width="800.0" x="100.0" y="800.0" /><rect fill="rgb(128,0,0)" height="64.0" stroke="black" stroke-width="5" width="376.0" x="112.0" y="812.0" /><text style="font-size:16px" x="124.0" y="828.0">threaten, appear, seem</text><rect fill="rgb(128,0,0)" height="64.0" stroke="black" stroke-width="5" width="376.0" x="512.0" y="812.0" /><text style="font-size:16px" x="524.0" y="828.0">ed, s</text><rect fill="rgb(128,0,0)" height="88.0" stroke="black" stroke-width="5" width="800.0" x="100.0" y="700.0" /><rect fill="rgb(128,0,0)" height="64.0" stroke="black" stroke-width="5" width="376.0" x="112.0" y="712.0" /><text style="font-size:16px" x="124.0" y="728.0">wish, reach</text><rect fill="rgb(128,0,0)" height="64.0" stroke="black" stroke-width="5" width="376.0" x="512.0" y="712.0" /><text style="font-size:16px" x="524.0" y="728.0">∅, ed, es</text><rect fill="rgb(128,0,0)" height="88.0" stroke="black" stroke-width="5" width="800.0" x="100.0" y="500.0" /><rect fill="rgb(128,0,0)" height="64.0" stroke="black" stroke-width="5" width="376.0" x="112.0" y="512.0" /><text style="font-size:16px" x="124.0" y="528.0">creat, depart</text><rect fill="rgb(128,0,0)" height="64.0" stroke="black" stroke-width="5" width="376.0" x="512.0" y="512.0" /><text style="font-size:16px" x="524.0" y="528.0">ed, ure</text><rect fill="rgb(128,0,0)" height="88.0" stroke="black" stroke-width="5" width="800.0" x="100.0" y="900.0" /><rect fill="rgb(128,0,0)" height="64.0" stroke="black" stroke-width="5" width="376.0" x="112.0" y="912.0" /><text style="font-size:16px" x="124.0" y="928.0">sav, fac</text><rect fill="rgb(128,0,0)" height="64.0" stroke="black" stroke-width="5" width="376.0" x="512.0" y="912.0" /><text style="font-size:16px" x="524.0" y="928.0">e, ed</text></svg>