<?xml version="1.0" encoding="utf-8" ?>
<svg baseProfile="full" height="4292.0" style="font-size:16.0" version="1.1" width="1000.0" xmlns="http://www.w3.org/2000/svg" xmlns:ev="http://www.w3.org/2001/xml-events" xmlns:xlink="http://www.w3.org/1999/xlink"><defs /><rect fill="rgb(128,0,0)" height="88.0" stroke="black" stroke-width="5" width="800.0" x="100.0" y="0.0" /><rect fill="rgb(128,0,0)" height="64.0" stroke="black" stroke-width="5" width="376.0" x="112.0" y="12.0" /><text x="136.0" y="44.0">['dash', 'laugh', 'injur', 'star', 'shout']</text><rect fill="rgb(128,0,0)" height="64.0" stroke="black" stroke-width="5" width="376.0" x="512.0" y="12.0" /><text x="536.0" y="44.0">['ed']</text><rect fill="rgb(128,0,0)" height="88.0" stroke="black" stroke-width="5" width="800.0" x="100.0" y="100.0" /><rect fill="rgb(128,0,0)" height="64.0" stroke="black" stroke-width="5" width="376.0" x="112.0" y="112.0" /><text x="136.0" y="144.0">['listen', 'join', 'listen', 'furnish', 'furnish']</text><rect fill="rgb(128,0,0)" height="64.0" stroke="black" stroke-width="5" width="376.0" x="512.0" y="112.0" /><text x="536.0" y="144.0">['ed']</text><rect fill="rgb(128,0,0)" height="88.0" stroke="black" stroke-width="5" width="800.0" x="100.0" y="200.0" /><rect fill="rgb(128,0,0)" height="64.0" stroke="black" stroke-width="5" width="376.0" x="112.0" y="212.0" /><text x="136.0" y="244.0">['walk', 'return', 'walk']</text><rect fill="rgb(128,0,0)" height="64.0" stroke="black" stroke-width="5" width="376.0" x="512.0" y="212.0" /><text x="536.0" y="244.0">['ed', 's', 's']</text><rect fill="rgb(128,0,0)" height="88.0" stroke="black" stroke-width="5" width="800.0" x="100.0" y="300.0" /><rect fill="rgb(128,0,0)" height="64.0" stroke="black" stroke-width="5" width="376.0" x="112.0" y="312.0" /><text x="136.0" y="344.0">['suit', 'hand', 'suit']</text><rect fill="rgb(128,0,0)" height="64.0" stroke="black" stroke-width="5" width="376.0" x="512.0" y="312.0" /><text x="536.0" y="344.0">['', '']</text><rect fill="rgb(128,0,0)" height="88.0" stroke="black" stroke-width="5" width="800.0" x="100.0" y="400.0" /><rect fill="rgb(128,0,0)" height="64.0" stroke="black" stroke-width="5" width="376.0" x="112.0" y="412.0" /><text x="136.0" y="444.0">['look', 'fail', 'watch', 'wait', 'show']</text><rect fill="rgb(128,0,0)" height="64.0" stroke="black" stroke-width="5" width="376.0" x="512.0" y="412.0" /><text x="536.0" y="444.0">['ed', 'ed']</text><rect fill="rgb(128,0,0)" height="88.0" stroke="black" stroke-width="5" width="800.0" x="100.0" y="500.0" /><rect fill="rgb(128,0,0)" height="64.0" stroke="black" stroke-width="5" width="376.0" x="112.0" y="512.0" /><text x="136.0" y="544.0">['creat']</text><rect fill="rgb(128,0,0)" height="64.0" stroke="black" stroke-width="5" width="376.0" x="512.0" y="512.0" /><text x="536.0" y="544.0">['ure']</text><rect fill="rgb(128,0,0)" height="88.0" stroke="black" stroke-width="5" width="800.0" x="100.0" y="600.0" /><rect fill="rgb(128,0,0)" height="64.0" stroke="black" stroke-width="5" width="376.0" x="112.0" y="612.0" /><text x="136.0" y="644.0">['compromis', 'glanc']</text><rect fill="rgb(128,0,0)" height="64.0" stroke="black" stroke-width="5" width="376.0" x="512.0" y="612.0" /><text x="536.0" y="644.0">['ed', 'e']</text><rect fill="rgb(128,0,0)" height="88.0" stroke="black" stroke-width="5" width="800.0" x="100.0" y="700.0" /><rect fill="rgb(128,0,0)" height="64.0" stroke="black" stroke-width="5" width="376.0" x="112.0" y="712.0" /><text x="136.0" y="744.0">['wish']</text><rect fill="rgb(128,0,0)" height="64.0" stroke="black" stroke-width="5" width="376.0" x="512.0" y="712.0" /><text x="536.0" y="744.0">['ed', 'es']</text><rect fill="rgb(128,0,0)" height="88.0" stroke="black" stroke-width="5" width="800.0" x="100.0" y="800.0" /><rect fill="rgb(128,0,0)" height="64.0" stroke="black" stroke-width="5" width="376.0" x="112.0" y="812.0" /><text x="136.0" y="844.0">['threaten', 'threaten']</text><rect fill="rgb(128,0,0)" height="64.0" stroke="black" stroke-width="5" width="376.0" x="512.0" y="812.0" /><text x="536.0" y="844.0">['s']</text><rect fill="rgb(128,0,0)" height="88.0" stroke="black" stroke-width="5" width="800.0" x="100.0" y="900.0" /><rect fill="rgb(128,0,0)" height="64.0" stroke="black" stroke-width="5" width="376.0" x="112.0" y="912.0" /><text x="136.0" y="944.0">['fac']</text><rect fill="rgb(128,0,0)" height="64.0" stroke="black" stroke-width="5" width="376.0" x="512.0" y="912.0" /><text x="536.0" y="944.0">['e']</text></svg>