<?xml version="1.0" encoding="utf-8" ?>
<svg baseProfile="full" height="4292.0" style="font-size:16.0" version="1.1" width="1000.0" xmlns="http://www.w3.org/2000/svg" xmlns:ev="http://www.w3.org/2001/xml-events" xmlns:xlink="http://www.w3.org/1999/xlink"><defs /><rect fill="rgb(128,0,0)" height="88.0" stroke="black" stroke-width="5" width="800.0" x="100.0" y="100.0" /><rect fill="rgb(128,0,0)" height="64.0" stroke="black" stroke-width="5" width="376.0" x="112.0" y="112.0" /><text x="136.0" y="144.0">['wom']</text><rect fill="rgb(128,0,0)" height="64.0" stroke="black" stroke-width="5" width="376.0" x="512.0" y="112.0" /><text x="536.0" y="144.0">['en']</text><rect fill="rgb(128,0,0)" height="88.0" stroke="black" stroke-width="5" width="800.0" x="100.0" y="200.0" /><rect fill="rgb(128,0,0)" height="64.0" stroke="black" stroke-width="5" width="376.0" x="112.0" y="212.0" /><text x="136.0" y="244.0">['trifl', 'driv', 'flam', 'clos', 'driv']</text><rect fill="rgb(128,0,0)" height="64.0" stroke="black" stroke-width="5" width="376.0" x="512.0" y="212.0" /><text x="536.0" y="244.0">['e']</text><rect fill="rgb(128,0,0)" height="88.0" stroke="black" stroke-width="5" width="800.0" x="100.0" y="300.0" /><rect fill="rgb(128,0,0)" height="64.0" stroke="black" stroke-width="5" width="376.0" x="112.0" y="312.0" /><text x="136.0" y="344.0">['some']</text><rect fill="rgb(128,0,0)" height="64.0" stroke="black" stroke-width="5" width="376.0" x="512.0" y="312.0" /><text x="536.0" y="344.0">['thing', 'one']</text><rect fill="rgb(128,0,0)" height="88.0" stroke="black" stroke-width="5" width="800.0" x="100.0" y="400.0" /><rect fill="rgb(128,0,0)" height="64.0" stroke="black" stroke-width="5" width="376.0" x="112.0" y="412.0" /><text x="136.0" y="444.0">['prefer', 'crime', 'thing', 'eye', 'desire']</text><rect fill="rgb(128,0,0)" height="64.0" stroke="black" stroke-width="5" width="376.0" x="512.0" y="412.0" /><text x="536.0" y="444.0">['']</text><rect fill="rgb(128,0,0)" height="88.0" stroke="black" stroke-width="5" width="800.0" x="100.0" y="500.0" /><rect fill="rgb(128,0,0)" height="64.0" stroke="black" stroke-width="5" width="376.0" x="112.0" y="512.0" /><text x="136.0" y="544.0">['observe', 'observe', 'hear', 'continue', 'continue']</text><rect fill="rgb(128,0,0)" height="64.0" stroke="black" stroke-width="5" width="376.0" x="512.0" y="512.0" /><text x="536.0" y="544.0">['d']</text><rect fill="rgb(128,0,0)" height="88.0" stroke="black" stroke-width="5" width="800.0" x="100.0" y="600.0" /><rect fill="rgb(128,0,0)" height="64.0" stroke="black" stroke-width="5" width="376.0" x="112.0" y="612.0" /><text x="136.0" y="644.0">['kind', 'hurried', 'strong', 'delicate', 'beautiful']</text><rect fill="rgb(128,0,0)" height="64.0" stroke="black" stroke-width="5" width="376.0" x="512.0" y="612.0" /><text x="536.0" y="644.0">['']</text><rect fill="rgb(128,0,0)" height="88.0" stroke="black" stroke-width="5" width="800.0" x="100.0" y="700.0" /><rect fill="rgb(128,0,0)" height="64.0" stroke="black" stroke-width="5" width="376.0" x="112.0" y="712.0" /><text x="136.0" y="744.0">['remarkabl', 'eas', 'admirabl']</text><rect fill="rgb(128,0,0)" height="64.0" stroke="black" stroke-width="5" width="376.0" x="512.0" y="712.0" /><text x="536.0" y="744.0">['e']</text><rect fill="rgb(128,0,0)" height="88.0" stroke="black" stroke-width="5" width="800.0" x="100.0" y="800.0" /><rect fill="rgb(128,0,0)" height="64.0" stroke="black" stroke-width="5" width="376.0" x="112.0" y="812.0" /><text x="136.0" y="844.0">['pac', 'laugh', 'rubb', 'balanc', 'liv']</text><rect fill="rgb(128,0,0)" height="64.0" stroke="black" stroke-width="5" width="376.0" x="512.0" y="812.0" /><text x="536.0" y="844.0">['ed']</text><rect fill="rgb(128,0,0)" height="88.0" stroke="black" stroke-width="5" width="800.0" x="100.0" y="900.0" /><rect fill="rgb(128,0,0)" height="64.0" stroke="black" stroke-width="5" width="376.0" x="112.0" y="912.0" /><text x="136.0" y="944.0">['furnish', 'sound', 'motion', 'enter', 'guess']</text><rect fill="rgb(128,0,0)" height="64.0" stroke="black" stroke-width="5" width="376.0" x="512.0" y="912.0" /><text x="536.0" y="944.0">['']</text><rect fill="rgb(128,0,0)" height="88.0" stroke="black" stroke-width="5" width="800.0" x="100.0" y="1000.0" /><rect fill="rgb(128,0,0)" height="64.0" stroke="black" stroke-width="5" width="376.0" x="112.0" y="1012.0" /><text x="136.0" y="1044.0">['the', 'had', 'rise', 'spoke', 'spoke']</text><rect fill="rgb(128,0,0)" height="64.0" stroke="black" stroke-width="5" width="376.0" x="512.0" y="1012.0" /><text x="536.0" y="1044.0">['']</text><rect fill="rgb(128,0,0)" height="88.0" stroke="black" stroke-width="5" width="800.0" x="100.0" y="1100.0" /><rect fill="rgb(128,0,0)" height="64.0" stroke="black" stroke-width="5" width="376.0" x="112.0" y="1112.0" /><text x="136.0" y="1144.0">['difficult']</text><rect fill="rgb(128,0,0)" height="64.0" stroke="black" stroke-width="5" width="376.0" x="512.0" y="1112.0" /><text x="536.0" y="1144.0">['']</text><rect fill="rgb(128,0,0)" height="88.0" stroke="black" stroke-width="5" width="800.0" x="100.0" y="1200.0" /><rect fill="rgb(128,0,0)" height="64.0" stroke="black" stroke-width="5" width="376.0" x="112.0" y="1212.0" /><text x="136.0" y="1244.0">['practic', 'fin']</text><rect fill="rgb(128,0,0)" height="64.0" stroke="black" stroke-width="5" width="376.0" x="512.0" y="1212.0" /><text x="536.0" y="1244.0">['ally']</text><rect fill="rgb(128,0,0)" height="88.0" stroke="black" stroke-width="5" width="800.0" x="100.0" y="1300.0" /><rect fill="rgb(128,0,0)" height="64.0" stroke="black" stroke-width="5" width="376.0" x="112.0" y="1312.0" /><text x="136.0" y="1344.0">['light', 'light', 'interest']</text><rect fill="rgb(128,0,0)" height="64.0" stroke="black" stroke-width="5" width="376.0" x="512.0" y="1312.0" /><text x="536.0" y="1344.0">['ing', '', 'ing']</text><rect fill="rgb(128,0,0)" height="88.0" stroke="black" stroke-width="5" width="800.0" x="100.0" y="1400.0" /><rect fill="rgb(128,0,0)" height="64.0" stroke="black" stroke-width="5" width="376.0" x="112.0" y="1412.0" /><text x="136.0" y="1444.0">['call', 'hand', 'call']</text><rect fill="rgb(128,0,0)" height="64.0" stroke="black" stroke-width="5" width="376.0" x="512.0" y="1412.0" /><text x="536.0" y="1444.0">['s', '']</text><rect fill="rgb(128,0,0)" height="88.0" stroke="black" stroke-width="5" width="800.0" x="100.0" y="1500.0" /><rect fill="rgb(128,0,0)" height="64.0" stroke="black" stroke-width="5" width="376.0" x="112.0" y="1512.0" /><text x="136.0" y="1544.0">['energ']</text><rect fill="rgb(128,0,0)" height="64.0" stroke="black" stroke-width="5" width="376.0" x="512.0" y="1512.0" /><text x="536.0" y="1544.0">['y']</text><rect fill="rgb(128,0,0)" height="88.0" stroke="black" stroke-width="5" width="800.0" x="100.0" y="1600.0" /><rect fill="rgb(128,0,0)" height="64.0" stroke="black" stroke-width="5" width="376.0" x="112.0" y="1612.0" /><text x="136.0" y="1644.0">['look', 'look', 'pass', 'secret', 'open']</text><rect fill="rgb(128,0,0)" height="64.0" stroke="black" stroke-width="5" width="376.0" x="512.0" y="1612.0" /><text x="536.0" y="1644.0">['ed', 'ed']</text><rect fill="rgb(128,0,0)" height="88.0" stroke="black" stroke-width="5" width="800.0" x="100.0" y="1700.0" /><rect fill="rgb(128,0,0)" height="64.0" stroke="black" stroke-width="5" width="376.0" x="112.0" y="1712.0" /><text x="136.0" y="1744.0">['grasp', 'consult', 'address', 'even', 'keep']</text><rect fill="rgb(128,0,0)" height="64.0" stroke="black" stroke-width="5" width="376.0" x="512.0" y="1712.0" /><text x="536.0" y="1744.0">['']</text><rect fill="rgb(128,0,0)" height="88.0" stroke="black" stroke-width="5" width="800.0" x="100.0" y="1800.0" /><rect fill="rgb(128,0,0)" height="64.0" stroke="black" stroke-width="5" width="376.0" x="112.0" y="1812.0" /><text x="136.0" y="1844.0">['carr', 'simplif', 'myster', 'carr', 'biograph']</text><rect fill="rgb(128,0,0)" height="64.0" stroke="black" stroke-width="5" width="376.0" x="512.0" y="1812.0" /><text x="536.0" y="1844.0">['ies']</text><rect fill="rgb(128,0,0)" height="88.0" stroke="black" stroke-width="5" width="800.0" x="100.0" y="1900.0" /><rect fill="rgb(128,0,0)" height="64.0" stroke="black" stroke-width="5" width="376.0" x="112.0" y="1912.0" /><text x="136.0" y="1944.0">['how']</text><rect fill="rgb(128,0,0)" height="64.0" stroke="black" stroke-width="5" width="376.0" x="512.0" y="1912.0" /><text x="536.0" y="1944.0">['ever']</text><rect fill="rgb(128,0,0)" height="88.0" stroke="black" stroke-width="5" width="800.0" x="100.0" y="2000.0" /><rect fill="rgb(128,0,0)" height="64.0" stroke="black" stroke-width="5" width="376.0" x="112.0" y="2012.0" /><text x="136.0" y="2044.0">['give', 'know']</text><rect fill="rgb(128,0,0)" height="64.0" stroke="black" stroke-width="5" width="376.0" x="512.0" y="2012.0" /><text x="536.0" y="2044.0">['', 'n']</text><rect fill="rgb(128,0,0)" height="88.0" stroke="black" stroke-width="5" width="800.0" x="100.0" y="2100.0" /><rect fill="rgb(128,0,0)" height="64.0" stroke="black" stroke-width="5" width="376.0" x="112.0" y="2112.0" /><text x="136.0" y="2144.0">['creat']</text><rect fill="rgb(128,0,0)" height="64.0" stroke="black" stroke-width="5" width="376.0" x="512.0" y="2112.0" /><text x="536.0" y="2144.0">['ure']</text><rect fill="rgb(128,0,0)" height="88.0" stroke="black" stroke-width="5" width="800.0" x="100.0" y="2200.0" /><rect fill="rgb(128,0,0)" height="64.0" stroke="black" stroke-width="5" width="376.0" x="112.0" y="2212.0" /><text x="136.0" y="2244.0">['sho', 'sho']</text><rect fill="rgb(128,0,0)" height="64.0" stroke="black" stroke-width="5" width="376.0" x="512.0" y="2212.0" /><text x="536.0" y="2244.0">['e']</text><rect fill="rgb(128,0,0)" height="88.0" stroke="black" stroke-width="5" width="800.0" x="100.0" y="2300.0" /><rect fill="rgb(128,0,0)" height="64.0" stroke="black" stroke-width="5" width="376.0" x="112.0" y="2312.0" /><text x="136.0" y="2344.0">['get', 'sit']</text><rect fill="rgb(128,0,0)" height="64.0" stroke="black" stroke-width="5" width="376.0" x="512.0" y="2312.0" /><text x="536.0" y="2344.0">['ting']</text><rect fill="rgb(128,0,0)" height="88.0" stroke="black" stroke-width="5" width="800.0" x="100.0" y="2400.0" /><rect fill="rgb(128,0,0)" height="64.0" stroke="black" stroke-width="5" width="376.0" x="112.0" y="2412.0" /><text x="136.0" y="2444.0">['its']</text><rect fill="rgb(128,0,0)" height="64.0" stroke="black" stroke-width="5" width="376.0" x="512.0" y="2412.0" /><text x="536.0" y="2444.0">['']</text><rect fill="rgb(128,0,0)" height="88.0" stroke="black" stroke-width="5" width="800.0" x="100.0" y="2500.0" /><rect fill="rgb(128,0,0)" height="64.0" stroke="black" stroke-width="5" width="376.0" x="112.0" y="2512.0" /><text x="136.0" y="2544.0">['edge', 'carrie', 'live', 'wishe']</text><rect fill="rgb(128,0,0)" height="64.0" stroke="black" stroke-width="5" width="376.0" x="512.0" y="2512.0" /><text x="536.0" y="2544.0">['s']</text><rect fill="rgb(128,0,0)" height="88.0" stroke="black" stroke-width="5" width="800.0" x="100.0" y="2600.0" /><rect fill="rgb(128,0,0)" height="64.0" stroke="black" stroke-width="5" width="376.0" x="112.0" y="2612.0" /><text x="136.0" y="2644.0">['importan']</text><rect fill="rgb(128,0,0)" height="64.0" stroke="black" stroke-width="5" width="376.0" x="512.0" y="2612.0" /><text x="536.0" y="2644.0">['t']</text><rect fill="rgb(128,0,0)" height="88.0" stroke="black" stroke-width="5" width="800.0" x="100.0" y="2700.0" /><rect fill="rgb(128,0,0)" height="64.0" stroke="black" stroke-width="5" width="376.0" x="112.0" y="2712.0" /><text x="136.0" y="2744.0">['stand']</text><rect fill="rgb(128,0,0)" height="64.0" stroke="black" stroke-width="5" width="376.0" x="512.0" y="2712.0" /><text x="536.0" y="2744.0">['ing']</text><rect fill="rgb(128,0,0)" height="88.0" stroke="black" stroke-width="5" width="800.0" x="100.0" y="2800.0" /><rect fill="rgb(128,0,0)" height="64.0" stroke="black" stroke-width="5" width="376.0" x="112.0" y="2812.0" /><text x="136.0" y="2844.0">['observ', 'observ']</text><rect fill="rgb(128,0,0)" height="64.0" stroke="black" stroke-width="5" width="376.0" x="512.0" y="2812.0" /><text x="536.0" y="2844.0">['ed', 'e']</text><rect fill="rgb(128,0,0)" height="88.0" stroke="black" stroke-width="5" width="800.0" x="100.0" y="2900.0" /><rect fill="rgb(128,0,0)" height="64.0" stroke="black" stroke-width="5" width="376.0" x="112.0" y="2912.0" /><text x="136.0" y="2944.0">['her', 'born', 'mad', 'born']</text><rect fill="rgb(128,0,0)" height="64.0" stroke="black" stroke-width="5" width="376.0" x="512.0" y="2912.0" /><text x="536.0" y="2944.0">['e']</text><rect fill="rgb(128,0,0)" height="88.0" stroke="black" stroke-width="5" width="800.0" x="100.0" y="3000.0" /><rect fill="rgb(128,0,0)" height="64.0" stroke="black" stroke-width="5" width="376.0" x="112.0" y="3012.0" /><text x="136.0" y="3044.0">['stat']</text><rect fill="rgb(128,0,0)" height="64.0" stroke="black" stroke-width="5" width="376.0" x="512.0" y="3012.0" /><text x="536.0" y="3044.0">['e']</text><rect fill="rgb(128,0,0)" height="88.0" stroke="black" stroke-width="5" width="800.0" x="100.0" y="3100.0" /><rect fill="rgb(128,0,0)" height="64.0" stroke="black" stroke-width="5" width="376.0" x="112.0" y="3112.0" /><text x="136.0" y="3144.0">['reach']</text><rect fill="rgb(128,0,0)" height="64.0" stroke="black" stroke-width="5" width="376.0" x="512.0" y="3112.0" /><text x="536.0" y="3144.0">['es', 'ed']</text><rect fill="rgb(128,0,0)" height="88.0" stroke="black" stroke-width="5" width="800.0" x="100.0" y="3200.0" /><rect fill="rgb(128,0,0)" height="64.0" stroke="black" stroke-width="5" width="376.0" x="112.0" y="3212.0" /><text x="136.0" y="3244.0">['shutt']</text><rect fill="rgb(128,0,0)" height="64.0" stroke="black" stroke-width="5" width="376.0" x="512.0" y="3212.0" /><text x="536.0" y="3244.0">['ing']</text><rect fill="rgb(128,0,0)" height="88.0" stroke="black" stroke-width="5" width="800.0" x="100.0" y="3300.0" /><rect fill="rgb(128,0,0)" height="64.0" stroke="black" stroke-width="5" width="376.0" x="112.0" y="3312.0" /><text x="136.0" y="3344.0">['threaten', 'appear']</text><rect fill="rgb(128,0,0)" height="64.0" stroke="black" stroke-width="5" width="376.0" x="512.0" y="3312.0" /><text x="536.0" y="3344.0">['ed']</text><rect fill="rgb(128,0,0)" height="88.0" stroke="black" stroke-width="5" width="800.0" x="100.0" y="3400.0" /><rect fill="rgb(128,0,0)" height="64.0" stroke="black" stroke-width="5" width="376.0" x="112.0" y="3412.0" /><text x="136.0" y="3444.0">['har', 'har']</text><rect fill="rgb(128,0,0)" height="64.0" stroke="black" stroke-width="5" width="376.0" x="512.0" y="3412.0" /><text x="536.0" y="3444.0">['e']</text><rect fill="rgb(128,0,0)" height="88.0" stroke="black" stroke-width="5" width="800.0" x="100.0" y="3500.0" /><rect fill="rgb(128,0,0)" height="64.0" stroke="black" stroke-width="5" width="376.0" x="112.0" y="3512.0" /><text x="136.0" y="3544.0">['sav']</text><rect fill="rgb(128,0,0)" height="64.0" stroke="black" stroke-width="5" width="376.0" x="512.0" y="3512.0" /><text x="536.0" y="3544.0">['e']</text><rect fill="rgb(128,0,0)" height="88.0" stroke="black" stroke-width="5" width="800.0" x="100.0" y="3600.0" /><rect fill="rgb(128,0,0)" height="64.0" stroke="black" stroke-width="5" width="376.0" x="112.0" y="3612.0" /><text x="136.0" y="3644.0">['draw']</text><rect fill="rgb(128,0,0)" height="64.0" stroke="black" stroke-width="5" width="376.0" x="512.0" y="3612.0" /><text x="536.0" y="3644.0">['ing', '']</text><rect fill="rgb(128,0,0)" height="88.0" stroke="black" stroke-width="5" width="800.0" x="100.0" y="3700.0" /><rect fill="rgb(128,0,0)" height="64.0" stroke="black" stroke-width="5" width="376.0" x="112.0" y="3712.0" /><text x="136.0" y="3744.0">['miss']</text><rect fill="rgb(128,0,0)" height="64.0" stroke="black" stroke-width="5" width="376.0" x="512.0" y="3712.0" /><text x="536.0" y="3744.0">['ion']</text><rect fill="rgb(128,0,0)" height="88.0" stroke="black" stroke-width="5" width="800.0" x="100.0" y="3800.0" /><rect fill="rgb(128,0,0)" height="64.0" stroke="black" stroke-width="5" width="376.0" x="112.0" y="3812.0" /><text x="136.0" y="3844.0">['mood', 'ever']</text><rect fill="rgb(128,0,0)" height="64.0" stroke="black" stroke-width="5" width="376.0" x="512.0" y="3812.0" /><text x="536.0" y="3844.0">['y']</text><rect fill="rgb(128,0,0)" height="88.0" stroke="black" stroke-width="5" width="800.0" x="100.0" y="3900.0" /><rect fill="rgb(128,0,0)" height="64.0" stroke="black" stroke-width="5" width="376.0" x="112.0" y="3912.0" /><text x="136.0" y="3944.0">['soon', 'form', 'fast']</text><rect fill="rgb(128,0,0)" height="64.0" stroke="black" stroke-width="5" width="376.0" x="512.0" y="3912.0" /><text x="536.0" y="3944.0">['']</text><rect fill="rgb(128,0,0)" height="88.0" stroke="black" stroke-width="5" width="800.0" x="100.0" y="4000.0" /><rect fill="rgb(128,0,0)" height="64.0" stroke="black" stroke-width="5" width="376.0" x="112.0" y="4012.0" /><text x="136.0" y="4044.0">['desir']</text><rect fill="rgb(128,0,0)" height="64.0" stroke="black" stroke-width="5" width="376.0" x="512.0" y="4012.0" /><text x="536.0" y="4044.0">['es']</text><rect fill="rgb(128,0,0)" height="88.0" stroke="black" stroke-width="5" width="800.0" x="100.0" y="4100.0" /><rect fill="rgb(128,0,0)" height="64.0" stroke="black" stroke-width="5" width="376.0" x="112.0" y="4112.0" /><text x="136.0" y="4144.0">['though']</text><rect fill="rgb(128,0,0)" height="64.0" stroke="black" stroke-width="5" width="376.0" x="512.0" y="4112.0" /><text x="536.0" y="4144.0">['']</text></svg>